HIERARCHY
ROOT root
{
	OFFSET	0	13.1	24.9
	CHANNELS 6  Xposition Yposition Zposition Xrotation Yrotation Zrotation
	JOINT spine_1
	{
		OFFSET	0	9.99999	0
		CHANNELS 3  Xrotation Yrotation Zrotation
		JOINT spine_2
		{
			OFFSET	0	112	-10
			CHANNELS 3  Xrotation Yrotation Zrotation
			JOINT spine_3
			{
				OFFSET	0	206.5	19.3
				CHANNELS 3  Xrotation Yrotation Zrotation
				JOINT spine_4
				{
					OFFSET	0	110.4	14.6
					CHANNELS 3  Xrotation Yrotation Zrotation
					JOINT neck_1
					{
						OFFSET	0	71.8	-50.3
						CHANNELS 3  Xrotation Yrotation Zrotation
						JOINT neck_2
						{
							OFFSET	0	86.2	-25.8
							CHANNELS 3  Xrotation Yrotation Zrotation
							JOINT head_ee
							{
								OFFSET	0	179.8	-8.7
								CHANNELS 3  Xrotation Yrotation Zrotation
								End Site
								{
									OFFSET	1	0	0
								}
							}
						}
					}
					JOINT left_clavicle
					{
						OFFSET	-43.2	22.4	-70.8
						CHANNELS 3  Xrotation Yrotation Zrotation
						JOINT left_shoulder
						{
							OFFSET	-93.9	-5.79999	48.7
							CHANNELS 3  Xrotation Yrotation Zrotation
							JOINT left_elbow
							{
								OFFSET	-291.4	-30.8	15.2
								CHANNELS 3  Xrotation Yrotation Zrotation
								JOINT left_lowarm_twist
								{
									OFFSET	-110.7	-3.89999	13.6
									CHANNELS 3  Xrotation Yrotation Zrotation
									JOINT left_hand
									{
										OFFSET	-110.7	-3.89999	13.6
										CHANNELS 3  Xrotation Yrotation Zrotation
										JOINT left_ee
										{
											OFFSET	-80.8	-5.10001	12.1
											CHANNELS 3  Xrotation Yrotation Zrotation
											End Site
											{
												OFFSET	1	0	0
											}
										}
									}
								}
							}
						}
					}
					JOINT right_clavicle
					{
						OFFSET	43.2	22.4	-70.8
						CHANNELS 3  Xrotation Yrotation Zrotation
						JOINT right_shoulder
						{
							OFFSET	93.9	-5.79999	48.7
							CHANNELS 3  Xrotation Yrotation Zrotation
							JOINT right_elbow
							{
								OFFSET	291.4	-30.8	15.2
								CHANNELS 3  Xrotation Yrotation Zrotation
								JOINT right_lowarm_twist
								{
									OFFSET	110.7	-3.89999	13.6
									CHANNELS 3  Xrotation Yrotation Zrotation
									JOINT right_hand
									{
										OFFSET	110.7	-3.89999	13.6
										CHANNELS 3  Xrotation Yrotation Zrotation
										JOINT right_ee
										{
											OFFSET	80.8	-5.10001	12.1
											CHANNELS 3  Xrotation Yrotation Zrotation
											End Site
											{
												OFFSET	1	0	0
											}
										}
									}
								}
							}
						}
					}
				}
			}
		}
	}
	JOINT left_hip
	{
		OFFSET	-82.8	-127.5	0.300001
		CHANNELS 3  Xrotation Yrotation Zrotation
		JOINT left_knee
		{
			OFFSET	-28.2	-396.7	2.2
			CHANNELS 3  Xrotation Yrotation Zrotation
			JOINT left_ankle
			{
				OFFSET	-11.7	-411.3	35.4
				CHANNELS 3  Xrotation Yrotation Zrotation
				JOINT left_toes
				{
					OFFSET	0	-60	-88.6
					CHANNELS 3  Xrotation Yrotation Zrotation
					JOINT left_foot_ee
					{
						OFFSET	-22.5	-16.5	-42.2
						CHANNELS 3  Xrotation Yrotation Zrotation
						End Site
						{
							OFFSET	1	0	0
						}
					}
				}
			}
		}
	}
	JOINT right_hip
	{
		OFFSET	82.8	-127.5	0.300001
		CHANNELS 3  Xrotation Yrotation Zrotation
		JOINT right_knee
		{
			OFFSET	28.2	-396.7	2.2
			CHANNELS 3  Xrotation Yrotation Zrotation
			JOINT right_ankle
			{
				OFFSET	11.7	-411.3	35.4
				CHANNELS 3  Xrotation Yrotation Zrotation
				JOINT right_toes
				{
					OFFSET	0	-60	-88.6
					CHANNELS 3  Xrotation Yrotation Zrotation
					JOINT right_foot_ee
					{
						OFFSET	22.5	-16.5	-42.2
						CHANNELS 3  Xrotation Yrotation Zrotation
						End Site
						{
							OFFSET	1	0	0
						}
					}
				}
			}
		}
	}
}
MOTION
Frames: 10
Frame Time: 0.02
3177.02 653.055 -1669.29 -10.2605743548 64.0984314256 6.10643268187 1.46816 1.24774 3.84919 1.47585 1.00047 3.92063 1.54607 0.264418 4.03744 1.52446 0.89824 3.94527 -3.90221 10.818 -2.64091 -3.69539 21.7926 -1.04044 -0.0 0.0 -0.0 -3.10399 24.6403 -1.30092 -22.6088 -4.45236 66.5134 0.318461 -8.96508 0.0249659 -46.4574 -3.66258 4.48491 0.87367 15.1443 11.6818 -0.0 0.0 -0.0 12.5082 22.9709 -24.8603 11.6912 18.3449 -69.566 3.75024 61.6908 -2.24014 -2.92191 0.112071 -0.356222 -0.369949 7.89028 5.85698 0.0 0.0 0.0 26.7526 7.78768 -7.73967 0.187477 -0.00776526 -0.0277219 15.3659 -8.32437 -2.22467 -37.3962 0.0 0.0 -0.0 0.0 -0.0 -11.7728 -6.5123 8.01892 -8.11878 -0.248158 -1.22024 38.9802 17.8505 5.17431 0.428826 -0.0 -0.0 0.0 0.0 0.0 
3157.878351 652.802 -1667.60962101 -10.63749639 63.4657854442 6.71947307993 1.58527 1.28276 3.9904 1.59354 1.02646 4.06377 1.66791 0.272688 4.18233 1.64471 0.929232 4.08706 -3.06227 10.6655 -3.6725 -2.76983 22.2428 -2.30514 -0.0 0.0 -0.0 -3.24344 24.5978 -1.49663 -22.6118 -4.05149 66.8918 0.381621 -10.7053 0.0357558 -45.3919 -3.54197 4.42046 1.39474 15.6008 15.1655 -0.0 0.0 -0.0 12.3297 22.6513 -24.4782 10.7751 17.41 -70.0878 3.78913 61.9365 -2.27441 -2.54459 0.0965778 -0.310544 -0.261774 7.08397 4.77802 0.0 0.0 0.0 27.2256 5.18779 -6.81341 -1.60627 0.0627972 0.238499 11.2484 -13.7074 -1.7108 -38.9762 0.0 0.0 -0.0 0.0 -0.0 -12.3249 -5.89988 8.49072 -7.47531 -0.23483 -1.12239 38.7447 18.4878 5.17719 0.367583 -0.0 -0.0 0.0 0.0 0.0 
3132.04727457 656.215 -1661.26892981 -12.1887535047 63.5335126614 8.17415521649 1.84833 1.07331 4.16795 1.85763 0.806163 4.22766 1.91776 0.0445014 4.30347 1.89265 0.722975 4.24265 -2.28281 10.0833 -4.91498 -1.90243 22.1043 -3.85385 -0.0 0.0 -0.0 -3.32365 24.3055 -1.66529 -22.9641 -3.82007 67.4131 0.429516 -12.0119 0.0451893 -44.6242 -3.45583 4.37264 1.72371 16.1595 17.4738 -0.0 0.0 -0.0 12.2207 22.3529 -24.2542 10.0219 16.6603 -70.3801 3.70255 61.3839 -2.1982 -2.75083 0.105009 -0.335524 -0.180056 6.63055 4.03083 0.0 0.0 0.0 27.2885 3.56367 -6.30763 -2.29108 0.0875297 0.340685 10.4797 -18.9099 -1.66524 -39.9141 0.0 0.0 -0.0 0.0 -0.0 -12.2691 -5.6193 9.76071 -7.43644 -0.233989 -1.11649 38.2945 18.7145 5.14421 0.259444 -0.0 -0.0 0.0 0.0 0.0 
3112.05633255 658.762 -1658.76104413 -14.844126634 64.1128851427 10.276970485 2.13231 0.846135 4.41094 2.14296 0.564027 4.45572 2.18633 -0.213921 4.48611 2.1586 0.49654 4.46372 -0.445953 8.83966 -4.755 -0.0493495 19.6502 -4.16814 -0.0 0.0 -0.0 -3.12731 23.2396 -1.61561 -22.2967 -4.40284 67.5917 0.433731 -12.1263 0.0460706 -44.8463 -3.48068 4.38659 1.90468 18.3323 19.3237 -0.0 0.0 -0.0 12.2067 22.7771 -24.1841 9.02703 16.4849 -70.9601 3.40056 59.2911 -1.93575 -2.77297 0.105919 -0.338203 0.130606 4.49246 1.02293 0.0 0.0 0.0 27.5184 2.21505 -5.60015 -4.5069 0.159148 0.673187 15.056 -22.5139 -2.42491 -39.5113 0.0 0.0 -0.0 0.0 -0.0 -11.2762 -5.36101 10.3813 -8.27672 -0.251262 -1.24427 38.1814 15.219 5.00873 0.165729 -0.0 -0.0 0.0 0.0 0.0 
3088.28125207 661.104 -1656.05180088 -16.3931182689 65.1088460739 11.9017205169 2.39585 0.821308 4.40077 2.40646 0.539895 4.444 2.44702 -0.215352 4.47143 2.41947 0.492815 4.44945 0.407964 9.32799 -4.22029 0.836175 20.0378 -3.69062 -0.0 0.0 -0.0 -3.52166 23.6357 -2.07673 -20.6906 -4.98895 67.6021 0.525052 -14.5795 0.0671658 -44.707 -3.46509 4.37786 2.02531 18.3745 20.1178 -0.0 0.0 -0.0 12.0803 23.2856 -23.8466 6.12176 16.8172 -70.2086 3.16704 57.4738 -1.73686 -3.6831 0.144242 -0.44806 0.630664 6.63478 -1.44181 0.0 0.0 0.0 26.7906 1.80397 -4.29695 -6.24012 0.206168 0.935012 18.151 -24.9504 -2.95232 -39.3926 0.0 0.0 -0.0 0.0 -0.0 -10.7344 -6.40325 10.2025 -10.4641 -0.287416 -1.57795 37.1285 12.1134 4.82008 0.228214 -0.0 -0.0 0.0 0.0 0.0 
3039.05276951 673.941 -1651.35655888 -21.8363603669 68.8102095704 16.5585290103 2.61525 0.471121 4.48047 2.62639 0.185357 4.50131 2.63859 -0.560602 4.47018 2.61075 0.151674 4.50257 0.856442 8.28808 -5.25283 1.31084 19.0138 -4.99198 -0.0 0.0 -0.0 -3.26073 21.0394 -2.25241 -19.0241 -7.66549 65.894 0.672866 -18.4342 0.109188 -43.413 -3.32123 4.29487 2.65419 17.4502 24.0185 -0.0 0.0 -0.0 11.6256 24.4805 -22.6903 0.0185863 15.9977 -69.1312 2.6857 53.0605 -1.34099 -3.635 0.142173 -0.442268 0.882341 6.5173 -3.1913 0.0 0.0 0.0 25.9588 2.12162 0.28392 -6.54605 0.213643 0.981365 21.3726 -29.1362 -3.58639 -40.1638 0.0 0.0 -0.0 0.0 -0.0 -9.30328 -3.82951 10.4349 -14.8359 -0.321397 -2.24771 38.6157 13.9195 5.00815 -0.237154 0.0 0.0 0.0 0.0 0.0 
3039.02659378 673.941 -1651.55909928 -21.7559689466 68.7321180073 16.4722852545 2.61525 0.471121 4.48047 2.62639 0.185357 4.50131 2.63859 -0.560602 4.47018 2.61075 0.151674 4.50257 0.856442 8.28808 -5.25283 1.31084 19.0138 -4.99198 -0.0 0.0 -0.0 -3.26073 21.0394 -2.25241 -19.0241 -7.66549 65.894 0.672866 -18.4342 0.109188 -43.413 -3.32123 4.29487 2.65419 17.4502 24.0185 -0.0 0.0 -0.0 11.6256 24.4805 -22.6903 0.0185863 15.9977 -69.1312 2.6857 53.0605 -1.34099 -3.635 0.142173 -0.442268 0.882341 6.5173 -3.1913 0.0 0.0 0.0 25.9588 2.12162 0.28392 -6.54605 0.213643 0.981365 21.3726 -29.1362 -3.58639 -40.1638 0.0 0.0 -0.0 0.0 -0.0 -9.30328 -3.82951 10.4349 -14.8359 -0.321397 -2.24771 38.6157 13.9195 5.00815 -0.237154 0.0 0.0 0.0 0.0 0.0 
3021.47153786 682.26 -1658.2643741 -23.6648720955 69.1936108513 18.4094194034 2.81935 0.326143 4.52138 2.83071 0.0380761 4.53295 2.83059 -0.69651 4.47939 2.8026 0.0189116 4.53307 1.42014 8.86586 -3.56268 1.81468 18.6078 -3.16978 -0.0 0.0 -0.0 -3.28275 20.3753 -2.42067 -16.4533 -7.63709 65.5631 0.76486 -20.7511 0.140043 -44.0409 -3.3908 4.33554 2.50794 19.3549 23.5631 -0.0 0.0 -0.0 11.6281 22.5261 -22.8816 -2.6433 15.5332 -69.3089 2.37801 49.6647 -1.10055 -3.69345 0.144688 -0.449305 0.885337 5.44798 -3.66276 0.0 0.0 0.0 25.3038 1.75464 0.941878 -7.07366 0.225953 1.0614 23.5478 -31.1687 -4.00376 -38.868 0.0 0.0 -0.0 0.0 -0.0 -7.39525 -2.88165 9.51817 -18.173 -0.312909 -2.75957 38.6871 12.6866 4.97912 0.0335071 -0.0 -0.0 0.0 0.0 0.0 
2986.34929938 687.03 -1667.76670623 -28.3332429575 71.8698278385 22.8928012684 3.18332 0.0983769 4.36642 3.1939 -0.1794 4.36385 3.17621 -0.858362 4.28251 3.15067 -0.171922 4.36415 -1.45627 8.2827 -2.1401 -1.26059 16.6177 -1.25545 -0.0 0.0 -0.0 -2.62938 17.9543 -1.91191 -9.88258 -9.97698 64.7881 0.933068 -24.8067 0.20521 -43.7269 -3.35596 4.3153 2.6289 19.9369 24.5219 -0.0 0.0 -0.0 10.8488 19.1344 -21.3721 -8.5515 14.5045 -69.9084 2.02993 45.1539 -0.844094 -5.80557 0.24037 -0.701817 1.05733 6.47066 -4.3944 0.0 0.0 0.0 23.1915 1.78979 3.62729 -5.61419 0.190102 0.840297 24.401 -30.2063 -4.07375 -39.9619 0.0 0.0 -0.0 0.0 -0.0 -3.62005 2.02686 7.12156 -28.6215 -0.0943923 -4.34588 39.2781 10.9269 4.98588 1.34642 -0.0 -0.0 0.0 0.0 0.0 
2986.35510347 687.03 -1667.16074441 -28.5995710823 72.0299045263 23.1729146489 3.18332 0.0983769 4.36642 3.1939 -0.1794 4.36385 3.17621 -0.858362 4.28251 3.15067 -0.171922 4.36415 -1.45627 8.2827 -2.1401 -1.26059 16.6177 -1.25545 -0.0 0.0 -0.0 -2.62938 17.9543 -1.91191 -9.88258 -9.97698 64.7881 0.933068 -24.8067 0.20521 -43.7269 -3.35596 4.3153 2.6289 19.9369 24.5219 -0.0 0.0 -0.0 10.8488 19.1344 -21.3721 -8.5515 14.5045 -69.9084 2.02993 45.1539 -0.844094 -5.80557 0.24037 -0.701817 1.05733 6.47066 -4.3944 0.0 0.0 0.0 23.1915 1.78979 3.62729 -5.61419 0.190102 0.840297 24.401 -30.2063 -4.07375 -39.9619 0.0 0.0 -0.0 0.0 -0.0 -3.62005 2.02686 7.12156 -28.6215 -0.0943923 -4.34588 39.2781 10.9269 4.98588 1.34642 -0.0 -0.0 0.0 0.0 0.0 
